<mxfile host="app.diagrams.net" modified="2023-08-17T13:53:17.672Z" agent="Mozilla/5.0 (Macintosh; Intel Mac OS X 10_15_7) AppleWebKit/537.36 (KHTML, like Gecko) Chrome/115.0.0.0 Safari/537.36" etag="o9XX4dZenumtR9Ml_gRJ" version="21.6.8" type="github">
  <diagram name="Page-1" id="e7e014a7-5840-1c2e-5031-d8a46d1fe8dd">
    <mxGraphModel dx="1242" dy="790" grid="1" gridSize="10" guides="1" tooltips="1" connect="1" arrows="1" fold="1" page="1" pageScale="1" pageWidth="1169" pageHeight="826" background="none" math="0" shadow="0">
      <root>
        <mxCell id="0" />
        <mxCell id="1" parent="0" />
        <mxCell id="5" value="" style="ellipse;shape=startState;fillColor=#000000;strokeColor=none;" parent="1" vertex="1">
          <mxGeometry x="380" y="80" width="30" height="30" as="geometry" />
        </mxCell>
        <mxCell id="6" value="" style="edgeStyle=elbowEdgeStyle;elbow=horizontal;verticalAlign=bottom;endArrow=open;endSize=8;strokeColor=#FF0000;endFill=1;rounded=0" parent="1" source="5" target="7" edge="1">
          <mxGeometry x="264.5" y="168" as="geometry">
            <mxPoint x="279.5" y="238" as="targetPoint" />
          </mxGeometry>
        </mxCell>
        <mxCell id="7" value="注册并登录" style="" parent="1" vertex="1">
          <mxGeometry x="340" y="140" width="110" height="50" as="geometry" />
        </mxCell>
        <mxCell id="38" value="" style="ellipse;shape=endState;fillColor=#000000;strokeColor=#ff0000" parent="1" vertex="1">
          <mxGeometry x="380" y="510" width="30" height="30" as="geometry" />
        </mxCell>
        <mxCell id="8OtCNjSDUCotOanEukIj-45" value="" style="rhombus;whiteSpace=wrap;html=1;fontColor=#000000;fillColor=#ffffc0;strokeColor=#ff0000;" vertex="1" parent="1">
          <mxGeometry x="357.5" y="220" width="75" height="40" as="geometry" />
        </mxCell>
        <mxCell id="8OtCNjSDUCotOanEukIj-46" value="no" style="edgeStyle=orthogonalEdgeStyle;html=1;align=left;verticalAlign=bottom;endArrow=open;endSize=8;strokeColor=#ff0000;rounded=0;entryX=1;entryY=0.5;entryDx=0;entryDy=0;exitX=1;exitY=0.5;exitDx=0;exitDy=0;" edge="1" source="8OtCNjSDUCotOanEukIj-45" parent="1" target="7">
          <mxGeometry x="-1" relative="1" as="geometry">
            <mxPoint x="530" y="320" as="targetPoint" />
            <Array as="points">
              <mxPoint x="490" y="240" />
              <mxPoint x="490" y="165" />
            </Array>
          </mxGeometry>
        </mxCell>
        <mxCell id="8OtCNjSDUCotOanEukIj-47" value="yes" style="edgeStyle=orthogonalEdgeStyle;html=1;align=left;verticalAlign=top;endArrow=open;endSize=8;strokeColor=#ff0000;rounded=0;entryX=0.5;entryY=0;entryDx=0;entryDy=0;" edge="1" source="8OtCNjSDUCotOanEukIj-45" parent="1" target="8OtCNjSDUCotOanEukIj-50">
          <mxGeometry x="-1" relative="1" as="geometry">
            <mxPoint x="390" y="400" as="targetPoint" />
            <Array as="points">
              <mxPoint x="395" y="310" />
            </Array>
            <mxPoint as="offset" />
          </mxGeometry>
        </mxCell>
        <mxCell id="8OtCNjSDUCotOanEukIj-49" value="" style="edgeStyle=elbowEdgeStyle;elbow=horizontal;verticalAlign=bottom;endArrow=open;endSize=8;strokeColor=#FF0000;endFill=1;rounded=0;entryX=0.5;entryY=0;entryDx=0;entryDy=0;exitX=0.5;exitY=1;exitDx=0;exitDy=0;" edge="1" parent="1" source="7" target="8OtCNjSDUCotOanEukIj-45">
          <mxGeometry x="264.5" y="168" as="geometry">
            <mxPoint x="394.5" y="320" as="targetPoint" />
            <mxPoint x="394.5" y="240" as="sourcePoint" />
          </mxGeometry>
        </mxCell>
        <mxCell id="8OtCNjSDUCotOanEukIj-50" value="创建密钥对" style="" vertex="1" parent="1">
          <mxGeometry x="340" y="310" width="110" height="50" as="geometry" />
        </mxCell>
        <mxCell id="8OtCNjSDUCotOanEukIj-51" value="创建授权策略" style="" vertex="1" parent="1">
          <mxGeometry x="340" y="410" width="110" height="50" as="geometry" />
        </mxCell>
        <mxCell id="8OtCNjSDUCotOanEukIj-53" value="" style="edgeStyle=elbowEdgeStyle;elbow=horizontal;verticalAlign=bottom;endArrow=open;endSize=8;strokeColor=#FF0000;endFill=1;rounded=0;entryX=0.5;entryY=0;entryDx=0;entryDy=0;exitX=0.5;exitY=1;exitDx=0;exitDy=0;" edge="1" parent="1" source="8OtCNjSDUCotOanEukIj-50" target="8OtCNjSDUCotOanEukIj-51">
          <mxGeometry x="264.5" y="168" as="geometry">
            <mxPoint x="405" y="230" as="targetPoint" />
            <mxPoint x="405" y="200" as="sourcePoint" />
          </mxGeometry>
        </mxCell>
        <mxCell id="8OtCNjSDUCotOanEukIj-54" value="" style="edgeStyle=elbowEdgeStyle;elbow=horizontal;verticalAlign=bottom;endArrow=open;endSize=8;strokeColor=#FF0000;endFill=1;rounded=0;entryX=0.5;entryY=0;entryDx=0;entryDy=0;exitX=0.5;exitY=1;exitDx=0;exitDy=0;" edge="1" parent="1">
          <mxGeometry x="264.5" y="168" as="geometry">
            <mxPoint x="394.5" y="510" as="targetPoint" />
            <mxPoint x="394.5" y="460" as="sourcePoint" />
          </mxGeometry>
        </mxCell>
      </root>
    </mxGraphModel>
  </diagram>
</mxfile>
